<svg version="1" xmlns="http://www.w3.org/2000/svg" width="682.667" height="682.667" viewBox="0 0 512.000000 512.000000"><path d="M82.9 6.5c-21.4 3.9-42 16-55.9 32.8C19.6 48.2 10.7 65.6 7.7 77l-2.2 8.5v341l2.2 8.2c9.2 34.4 34.8 60.1 69.3 69.5l8.5 2.3h341l8.5-2.3c34.5-9.4 60.1-35.1 69.3-69.5l2.2-8.2v-341l-2.3-8.5c-3.9-14.7-12.3-30.2-22.6-41.7-10.4-11.5-29.2-22.8-46.1-27.5l-8-2.3L259 5.3c-139.8-.1-169.8.1-176.1 1.2zM384 108.9v16.8L280.5 253.9C223.6 324.3 177 382.2 177 382.5c0 .3 47.7.5 106 .5h106v37H121v-33.5l103.5-128C281.4 188.1 328 130.2 328 129.7c0-.4-45.4-.7-101-.7H126V92h258v16.9z"/></svg>