<svg xmlns="http://www.w3.org/2000/svg" stroke="#595ddd" fill="#595ddd" width="100px" viewBox="0 0 100 100">
    <mask id="controller-mask">
        <rect width="100%" height="100%" fill="white" />
        <rect x="11" y="51" rx="3" width="24" height="8" fill="black" stroke-width="0"/>
        <rect x="19" y="43" rx="3" width="8" height="24" fill="black" stroke-width="0" />
        <circle cx="77" cy="63" r="4" fill="black" stroke-width="0"/>
        <circle cx="77" cy="47" r="4" fill="black" stroke-width="0"/>
        <circle cx="69" cy="55" r="4" fill="black" stroke-width="0"/>
        <circle cx="85" cy="55" r="4" fill="black" stroke-width="0" />
    </mask>
    
    <g mask="url(#controller-mask)">
        <circle cx="23" cy="55" r="22" />
        <circle cx="77" cy="55" r="22" />
        <rect x="23" y="33" width="54" height="35" />
    </g>
  
    <path fill="none" stroke-width="5" d="
        M 50,30 A 10,10 0 0,1 60,20
        M 60,20 L 70,20
        M 70,20 A 10,10 0 0,0 80,10
        M 80,10 L 80,0" />
</svg>